# xmcd
#
# Track frame offsets: 
#        150
#        11092
#        19875
#        29145
#        39745
#        49226
#        60216
#        70422
#        81358
#        91813
#        101028
#        110699
#        123963
#        132869
#        143345
#        157061
#        167606
#        179787
#
# Disc length: 2551 seconds
#
# Revision: 12
# Processed by: cddbd v1.5.2PL0 Copyright (c) Steve Scherf et al.
# Submitted via: ExactAudioCopyFreeDBPlugin 1.0
#
DISCID=fc09f512
DTITLE=The Beatles - Past Masters, Volume One
DYEAR=2009
DGENRE=Rock
TTITLE0=Love Me Do (Original Single Version)
TTITLE1=From Me to You
TTITLE2=Thank You Girl
TTITLE3=She Loves You
TTITLE4=I'll Get You
TTITLE5=I Want to Hold Your Hand
TTITLE6=This Boy
TTITLE7=Komm, Gib Mir Deine Hand
TTITLE8=Sie Liebt Dich
TTITLE9=Long Tall Sally
TTITLE10=I Call Your Name
TTITLE11=Slow Down
TTITLE12=Matchbox
TTITLE13=I Feel Fine
TTITLE14=She's a Woman
TTITLE15=Bad Boy
TTITLE16=Yes It Is
TTITLE17=I'm Down
EXTD=YEAR: 2009
EXTT0=
EXTT1=
EXTT2=
EXTT3=
EXTT4=
EXTT5=
EXTT6=
EXTT7=
EXTT8=
EXTT9=
EXTT10=
EXTT11=
EXTT12=
EXTT13=
EXTT14=
EXTT15=
EXTT16=
EXTT17=
PLAYORDER=
